<svg xmlns="http://www.w3.org/2000/svg" width="1129" height="663" viewBox="0 0 1129 663">
  <title>Focus on What Matters</title>
  <circle cx="321" cy="321" r="321" fill="#f2f2f2" />
  <ellipse cx="559" cy="635.49998" rx="514" ry="27.50002" fill="#3f3d56" />
  <ellipse cx="558" cy="627" rx="460" ry="22" opacity="0.2" />
  <rect x="131" y="152.5" width="840" height="50" fill="#3f3d56" />
  <path d="M166.5,727.3299A21.67009,21.67009,0,0,0,188.1701,749H984.8299A21.67009,21.67009,0,0,0,1006.5,727.3299V296h-840Z" transform="translate(-35.5 -118.5)" fill="#3f3d56" />
  <path d="M984.8299,236H188.1701A21.67009,21.67009,0,0,0,166.5,257.6701V296h840V257.6701A21.67009,21.67009,0,0,0,984.8299,236Z" transform="translate(-35.5 -118.5)" fill="#3f3d56" />
  <path d="M984.8299,236H188.1701A21.67009,21.67009,0,0,0,166.5,257.6701V296h840V257.6701A21.67009,21.67009,0,0,0,984.8299,236Z" transform="translate(-35.5 -118.5)" opacity="0.2" />
  <circle cx="181" cy="147.5" r="13" fill="#3f3d56" />
  <circle cx="217" cy="147.5" r="13" fill="#3f3d56" />
  <circle cx="253" cy="147.5" r="13" fill="#3f3d56" />
  <rect x="168" y="213.5" width="337" height="386" rx="5.33505" fill="#606060" />
  <rect x="603" y="272.5" width="284" height="22" rx="5.47638" fill="#2e8555" />
  <rect x="537" y="352.5" width="416" height="15" rx="5.47638" fill="#2e8555" />
  <rect x="537" y="396.5" width="416" height="15" rx="5.47638" fill="#2e8555" />
  <rect x="537" y="440.5" width="416" height="15" rx="5.47638" fill="#2e8555" />
  <rect x="537" y="484.5" width="416" height="15" rx="5.47638" fill="#2e8555" />
  <rect x="865" y="552.5" width="88" height="26" rx="7.02756" fill="#3ecc5f" />
  <path d="M1088.60287,624.61594a30.11371,30.11371,0,0,0,3.98291-15.266c0-13.79652-8.54358-24.98081-19.08256-24.98081s-19.08256,11.18429-19.08256,24.98081a30.11411,30.11411,0,0,0,3.98291,15.266,31.248,31.248,0,0,0,0,30.53213,31.248,31.248,0,0,0,0,30.53208,31.248,31.248,0,0,0,0,30.53208,30.11408,30.11408,0,0,0-3.98291,15.266c0,13.79652,8.54353,24.98081,19.08256,24.98081s19.08256-11.18429,19.08256-24.98081a30.11368,30.11368,0,0,0-3.98291-15.266,31.248,31.248,0,0,0,0-30.53208,31.248,31.248,0,0,0,0-30.53208,31.248,31.248,0,0,0,0-30.53213Z" transform="translate(-35.5 -118.5)" fill="#3f3d56" />
  <ellipse cx="1038.00321" cy="460.31783" rx="19.08256" ry="24.9808" fill="#3f3d56" />
  <ellipse cx="1038.00321" cy="429.78574" rx="19.08256" ry="24.9808" fill="#3f3d56" />
  <path d="M1144.93871,339.34489a91.61081,91.61081,0,0,0,7.10658-10.46092l-50.141-8.23491,54.22885.4033a91.566,91.566,0,0,0,1.74556-72.42605l-72.75449,37.74139,67.09658-49.32086a91.41255,91.41255,0,1,0-150.971,102.29805,91.45842,91.45842,0,0,0-10.42451,16.66946l65.0866,33.81447-69.40046-23.292a91.46011,91.46011,0,0,0,14.73837,85.83669,91.40575,91.40575,0,1,0,143.68892,0,91.41808,91.41808,0,0,0,0-113.02862Z" transform="translate(-35.5 -118.5)" fill="#3ecc5f" fill-rule="evenodd" />
  <g id="docusaurus_keytar" transform="translate(250, 310) scale(2)">
    <g
            id="SvgjsG1049"
            featureKey="PG4fjM-0"
            transform="matrix(1.0772545,0,0,1.0772545,-10.266235,-5.418589)"
            fill="#01befd">
      <path
              d="m 14.03,50.03 36,36 v -4.5 l 31.5,-31.5 -31.5,-31.5 v -4.5 l -36,36 m -4.5,0 40.5,-40.5 v -4.5 l 45,45 -45,45 v -4.5 L 9.53,50.03"
              style="clip-rule:evenodd;fill-rule:evenodd"
              id="path1"/>
      <path
              d="m 50.03,45.53 v -4.5 l -9,9 9,9 v -4.5 l 4.5,-4.5 -4.5,-4.5 m 18,4.5 -18,18 v -4.5 l -13.5,-13.5 13.5,-13.5 v -4.5 l 18,18"
              style="clip-rule:evenodd;fill-rule:evenodd"
              id="path2"/>
      <polyline
              points="27.53,50.03 50.03,72.53 50.03,77.03 23.03,50.03 50.03,23.03 50.03,27.53 27.53,50.03 "
              style="clip-rule:evenodd;fill-rule:evenodd"
              id="polyline2"/>
    </g>
  </g>
</svg>
