<?xml version="1.0" encoding="UTF-8" standalone="no"?>
<svg
        version="1.1"
        width="747.01196"
        height="786.32837"
        viewBox="0 0 747.01198 786.32837"
        id="svg3"
        xmlns="http://www.w3.org/2000/svg"
        xmlns:svg="http://www.w3.org/2000/svg">
    <defs
            id="defs3" />
    <g
            transform="matrix(8.1104155,0,0,8.1104155,-1.5137701e-8,-9.2759574e-6)"
            id="g3">
        <defs
                id="SvgjsDefs1048" />
        <g
                id="SvgjsG1049"
                featureKey="PG4fjM-0"
                transform="matrix(1.0772545,0,0,1.0772545,-10.266235,-5.418589)"
                fill="#01befd">
            <path
                    d="m 14.03,50.03 36,36 v -4.5 l 31.5,-31.5 -31.5,-31.5 v -4.5 l -36,36 m -4.5,0 40.5,-40.5 v -4.5 l 45,45 -45,45 v -4.5 L 9.53,50.03"
                    style="clip-rule:evenodd;fill-rule:evenodd"
                    id="path1" />
            <path
                    d="m 50.03,45.53 v -4.5 l -9,9 9,9 v -4.5 l 4.5,-4.5 -4.5,-4.5 m 18,4.5 -18,18 v -4.5 l -13.5,-13.5 13.5,-13.5 v -4.5 l 18,18"
                    style="clip-rule:evenodd;fill-rule:evenodd"
                    id="path2" />
            <polyline
                    points="27.53,50.03 50.03,72.53 50.03,77.03 23.03,50.03 50.03,23.03 50.03,27.53 27.53,50.03 "
                    style="clip-rule:evenodd;fill-rule:evenodd"
                    id="polyline2" />
        </g>
    </g>
</svg>
